<svg width="20" height="20" viewBox="0 0 20 20" fill="none" xmlns="http://www.w3.org/2000/svg">
<path d="M10 15.0001C10.2833 15.0001 10.5208 14.9043 10.7125 14.7126C10.9042 14.521 11 14.2835 11 14.0001C11 13.7168 10.9042 13.4793 10.7125 13.2876C10.5208 13.096 10.2833 13.0001 10 13.0001C9.71667 13.0001 9.47917 13.096 9.2875 13.2876C9.09583 13.4793 9 13.7168 9 14.0001C9 14.2835 9.09583 14.521 9.2875 14.7126C9.47917 14.9043 9.71667 15.0001 10 15.0001ZM9 11.0001H11V5.00012H9V11.0001ZM10 20.0001C8.61667 20.0001 7.31667 19.7376 6.1 19.2126C4.88333 18.6876 3.825 17.9751 2.925 17.0751C2.025 16.1751 1.3125 15.1168 0.7875 13.9001C0.2625 12.6835 0 11.3835 0 10.0001C0 8.61679 0.2625 7.31679 0.7875 6.10012C1.3125 4.88346 2.025 3.82512 2.925 2.92512C3.825 2.02512 4.88333 1.31262 6.1 0.787622C7.31667 0.262622 8.61667 0.00012207 10 0.00012207C11.3833 0.00012207 12.6833 0.262622 13.9 0.787622C15.1167 1.31262 16.175 2.02512 17.075 2.92512C17.975 3.82512 18.6875 4.88346 19.2125 6.10012C19.7375 7.31679 20 8.61679 20 10.0001C20 11.3835 19.7375 12.6835 19.2125 13.9001C18.6875 15.1168 17.975 16.1751 17.075 17.0751C16.175 17.9751 15.1167 18.6876 13.9 19.2126C12.6833 19.7376 11.3833 20.0001 10 20.0001Z" fill="#BA1A1A"/>
</svg>
